<svg id="Capa_1" data-name="Capa 1" xmlns="http://www.w3.org/2000/svg" viewBox="0 0 674.67 580"><defs><style>.cls-1{fill:#012bb3;}.cls-2{fill:#fff;}.cls-3{fill:#2c509e;}</style></defs><title>logotipo3</title><ellipse class="cls-1" cx="338.39" cy="290" rx="290.19" ry="290"/><path class="cls-2" d="M611.92,481.46a54.06,54.06,0,0,0-2.13-9C605,453.55,594.36,454.07,408,261.27l4-105.08,106.35-7.12L711.85,342.39c20.16,22.92,16,57.14,1.74,75.9L600.79,533.62c-20.69,19.45-42.24,25.88-68.48,14.77,52.64,16.89,85.43-28.64,79.61-66.93" transform="translate(-50.97 -7)"/><path class="cls-2" d="M164.69,112a55,55,0,0,0,2.13,9c4.83,19,15.44,18.43,201.84,211.23l-4,105.08L258.3,444.44,64.76,251.12C44.6,228.19,48.77,194,63,175.22L175.83,59.89C196.51,40.43,218.06,34,244.31,45.12,191.66,28.23,158.87,73.75,164.69,112" transform="translate(-50.97 -7)"/><path class="cls-1" d="M165.27,113.23c-5.36-42.78,31.45-81.53,78.29-66.92C213.14,64,187.31,86.59,165.27,113.23Z" transform="translate(-50.97 -7)"/><path class="cls-1" d="M612.12,482.89c4.88,42.84-32.36,81.17-79,66A290.65,290.65,0,0,0,612.12,482.89Z" transform="translate(-50.97 -7)"/><path class="cls-3" d="M189.55,552.3" transform="translate(-50.97 -7)"/></svg>