<?xml version="1.0" encoding="utf-8"?>
<!-- Generator: Adobe Illustrator 24.0.3, SVG Export Plug-In . SVG Version: 6.00 Build 0)  -->
<svg version="1.1" id="Capa_1" xmlns="http://www.w3.org/2000/svg" xmlns:xlink="http://www.w3.org/1999/xlink" x="0px" y="0px"
	 viewBox="0 0 800 600" style="enable-background:new 0 0 800 600;" xml:space="preserve">
<style type="text/css">
	.st0{fill:none;}
	.st1{fill:#FFFFFF;}
	.st2{fill:#2C509E;}
</style>
<ellipse class="st0" cx="401" cy="300" rx="258.9" ry="258.7"/>
<path class="st1" d="M599.5,464.6c-0.4-2.7-1-5.4-1.9-8c-4.3-16.9-13.8-16.4-180.1-188.5l3.6-93.8l94.9-6.4l172.7,172.5
	c18,20.5,14.3,51,1.5,67.7L589.6,511.2c-18.5,17.4-37.7,23.1-61.1,13.2C575.5,539.4,604.7,498.8,599.5,464.6"/>
<path class="st1" d="M599.7,465.9c4.3,38.2-28.9,72.4-70.5,58.9C556.5,509.4,579.8,489.5,599.7,465.9z"/>
<path class="st1" d="M201.6,135.3c0.4,2.7,1,5.4,1.9,8c4.3,16.9,13.8,16.4,180.1,188.5l-3.6,93.8l-94.9,6.4L112.4,259.5
	c-18-20.5-14.3-51-1.5-67.7L211.5,88.7c18.5-17.4,37.7-23.1,61.1-13.2C225.6,60.5,196.4,101.1,201.6,135.3"/>
<path class="st1" d="M201.4,134c-4.3-38.2,28.9-72.4,70.5-58.9C244.6,90.5,221.3,110.4,201.4,134z"/>
<path class="st2" d="M222.7,527.8"/>
</svg>
